<mxfile host="app.diagrams.net" modified="2024-04-04T10:20:30.866Z" agent="Mozilla/5.0 (Windows NT 10.0; Win64; x64) AppleWebKit/537.36 (KHTML, like Gecko) Chrome/123.0.0.0 Safari/537.36" etag="foPAVOtgEtuqXn1mn-GG" version="24.2.2" type="device">
  <diagram name="Страница-1" id="WcqHhNVJukCY2KidQPpv">
    <mxGraphModel dx="1434" dy="738" grid="1" gridSize="10" guides="1" tooltips="1" connect="1" arrows="1" fold="1" page="1" pageScale="1" pageWidth="827" pageHeight="1169" math="0" shadow="0">
      <root>
        <mxCell id="0" />
        <mxCell id="1" parent="0" />
        <mxCell id="YKc2kV-cfJVW2iqWpYW3-6" style="rounded=0;orthogonalLoop=1;jettySize=auto;html=1;" edge="1" parent="1" source="YKc2kV-cfJVW2iqWpYW3-1" target="YKc2kV-cfJVW2iqWpYW3-4">
          <mxGeometry relative="1" as="geometry" />
        </mxCell>
        <mxCell id="YKc2kV-cfJVW2iqWpYW3-7" style="rounded=0;orthogonalLoop=1;jettySize=auto;html=1;" edge="1" parent="1" source="YKc2kV-cfJVW2iqWpYW3-1" target="YKc2kV-cfJVW2iqWpYW3-5">
          <mxGeometry relative="1" as="geometry" />
        </mxCell>
        <mxCell id="YKc2kV-cfJVW2iqWpYW3-9" style="rounded=0;orthogonalLoop=1;jettySize=auto;html=1;" edge="1" parent="1" source="YKc2kV-cfJVW2iqWpYW3-1" target="YKc2kV-cfJVW2iqWpYW3-8">
          <mxGeometry relative="1" as="geometry" />
        </mxCell>
        <mxCell id="YKc2kV-cfJVW2iqWpYW3-11" style="rounded=0;orthogonalLoop=1;jettySize=auto;html=1;" edge="1" parent="1" source="YKc2kV-cfJVW2iqWpYW3-1" target="YKc2kV-cfJVW2iqWpYW3-10">
          <mxGeometry relative="1" as="geometry" />
        </mxCell>
        <mxCell id="YKc2kV-cfJVW2iqWpYW3-18" style="rounded=0;orthogonalLoop=1;jettySize=auto;html=1;" edge="1" parent="1" source="YKc2kV-cfJVW2iqWpYW3-1" target="YKc2kV-cfJVW2iqWpYW3-16">
          <mxGeometry relative="1" as="geometry" />
        </mxCell>
        <mxCell id="YKc2kV-cfJVW2iqWpYW3-25" style="rounded=0;orthogonalLoop=1;jettySize=auto;html=1;" edge="1" parent="1" source="YKc2kV-cfJVW2iqWpYW3-1" target="YKc2kV-cfJVW2iqWpYW3-24">
          <mxGeometry relative="1" as="geometry" />
        </mxCell>
        <mxCell id="YKc2kV-cfJVW2iqWpYW3-26" style="rounded=0;orthogonalLoop=1;jettySize=auto;html=1;" edge="1" parent="1" source="YKc2kV-cfJVW2iqWpYW3-1" target="YKc2kV-cfJVW2iqWpYW3-23">
          <mxGeometry relative="1" as="geometry" />
        </mxCell>
        <mxCell id="YKc2kV-cfJVW2iqWpYW3-1" value="STUDENT" style="shape=umlActor;verticalLabelPosition=bottom;verticalAlign=top;html=1;outlineConnect=0;" vertex="1" parent="1">
          <mxGeometry x="430" y="350" width="30" height="60" as="geometry" />
        </mxCell>
        <mxCell id="YKc2kV-cfJVW2iqWpYW3-4" value="Register" style="ellipse;whiteSpace=wrap;html=1;fillColor=#d5e8d4;strokeColor=#82b366;" vertex="1" parent="1">
          <mxGeometry x="260" y="190" width="140" height="50" as="geometry" />
        </mxCell>
        <mxCell id="YKc2kV-cfJVW2iqWpYW3-5" value="Login" style="ellipse;whiteSpace=wrap;html=1;fillColor=#d5e8d4;strokeColor=#82b366;" vertex="1" parent="1">
          <mxGeometry x="180" y="270" width="140" height="50" as="geometry" />
        </mxCell>
        <mxCell id="YKc2kV-cfJVW2iqWpYW3-8" value="Get account&lt;br&gt;confirmation" style="ellipse;whiteSpace=wrap;html=1;fillColor=#dae8fc;strokeColor=#6c8ebf;" vertex="1" parent="1">
          <mxGeometry x="400" y="140" width="140" height="50" as="geometry" />
        </mxCell>
        <mxCell id="YKc2kV-cfJVW2iqWpYW3-10" value="View profile" style="ellipse;whiteSpace=wrap;html=1;fillColor=#ffe6cc;strokeColor=#d79b00;" vertex="1" parent="1">
          <mxGeometry x="500" y="220" width="140" height="50" as="geometry" />
        </mxCell>
        <mxCell id="YKc2kV-cfJVW2iqWpYW3-22" value="extend" style="rounded=0;orthogonalLoop=1;jettySize=auto;html=1;dashed=1;" edge="1" parent="1" source="YKc2kV-cfJVW2iqWpYW3-12" target="YKc2kV-cfJVW2iqWpYW3-10">
          <mxGeometry relative="1" as="geometry" />
        </mxCell>
        <mxCell id="YKc2kV-cfJVW2iqWpYW3-12" value="Create avatar" style="ellipse;whiteSpace=wrap;html=1;fillColor=#ffe6cc;strokeColor=#d79b00;" vertex="1" parent="1">
          <mxGeometry x="600" y="140" width="140" height="50" as="geometry" />
        </mxCell>
        <mxCell id="YKc2kV-cfJVW2iqWpYW3-21" value="extend" style="rounded=0;orthogonalLoop=1;jettySize=auto;html=1;dashed=1;exitX=0.5;exitY=0;exitDx=0;exitDy=0;" edge="1" parent="1" source="YKc2kV-cfJVW2iqWpYW3-13" target="YKc2kV-cfJVW2iqWpYW3-10">
          <mxGeometry relative="1" as="geometry" />
        </mxCell>
        <mxCell id="YKc2kV-cfJVW2iqWpYW3-13" value="Change avatar" style="ellipse;whiteSpace=wrap;html=1;fillColor=#ffe6cc;strokeColor=#d79b00;" vertex="1" parent="1">
          <mxGeometry x="670" y="250" width="140" height="50" as="geometry" />
        </mxCell>
        <mxCell id="YKc2kV-cfJVW2iqWpYW3-16" value="&lt;div&gt;View active&lt;br&gt;competitions/tests&lt;/div&gt;" style="ellipse;whiteSpace=wrap;html=1;fillColor=#fff2cc;strokeColor=#d6b656;" vertex="1" parent="1">
          <mxGeometry x="520" y="340" width="140" height="50" as="geometry" />
        </mxCell>
        <mxCell id="YKc2kV-cfJVW2iqWpYW3-20" value="extend" style="rounded=0;orthogonalLoop=1;jettySize=auto;html=1;dashed=1;" edge="1" parent="1" source="YKc2kV-cfJVW2iqWpYW3-17" target="YKc2kV-cfJVW2iqWpYW3-16">
          <mxGeometry relative="1" as="geometry" />
        </mxCell>
        <mxCell id="YKc2kV-cfJVW2iqWpYW3-17" value="Solve&lt;br&gt;comp/test" style="ellipse;whiteSpace=wrap;html=1;fillColor=#fff2cc;strokeColor=#d6b656;" vertex="1" parent="1">
          <mxGeometry x="660" y="410" width="140" height="50" as="geometry" />
        </mxCell>
        <mxCell id="YKc2kV-cfJVW2iqWpYW3-33" value="include" style="rounded=0;orthogonalLoop=1;jettySize=auto;html=1;dashed=1;" edge="1" parent="1" source="YKc2kV-cfJVW2iqWpYW3-23" target="YKc2kV-cfJVW2iqWpYW3-27">
          <mxGeometry relative="1" as="geometry" />
        </mxCell>
        <mxCell id="YKc2kV-cfJVW2iqWpYW3-34" value="include" style="rounded=0;orthogonalLoop=1;jettySize=auto;html=1;dashed=1;" edge="1" parent="1" source="YKc2kV-cfJVW2iqWpYW3-23" target="YKc2kV-cfJVW2iqWpYW3-28">
          <mxGeometry relative="1" as="geometry" />
        </mxCell>
        <mxCell id="YKc2kV-cfJVW2iqWpYW3-36" value="include" style="rounded=0;orthogonalLoop=1;jettySize=auto;html=1;" edge="1" parent="1" source="YKc2kV-cfJVW2iqWpYW3-23" target="YKc2kV-cfJVW2iqWpYW3-35">
          <mxGeometry relative="1" as="geometry" />
        </mxCell>
        <mxCell id="YKc2kV-cfJVW2iqWpYW3-23" value="&lt;div&gt;Solve&lt;/div&gt;&lt;div&gt;exercise&lt;/div&gt;" style="ellipse;whiteSpace=wrap;html=1;fillColor=#e1d5e7;strokeColor=#9673a6;" vertex="1" parent="1">
          <mxGeometry x="530" y="470" width="140" height="50" as="geometry" />
        </mxCell>
        <mxCell id="YKc2kV-cfJVW2iqWpYW3-30" value="include" style="rounded=0;orthogonalLoop=1;jettySize=auto;html=1;dashed=1;" edge="1" parent="1" source="YKc2kV-cfJVW2iqWpYW3-24" target="YKc2kV-cfJVW2iqWpYW3-29">
          <mxGeometry relative="1" as="geometry" />
        </mxCell>
        <mxCell id="YKc2kV-cfJVW2iqWpYW3-31" value="include" style="rounded=0;orthogonalLoop=1;jettySize=auto;html=1;dashed=1;" edge="1" parent="1" source="YKc2kV-cfJVW2iqWpYW3-24" target="YKc2kV-cfJVW2iqWpYW3-28">
          <mxGeometry relative="1" as="geometry" />
        </mxCell>
        <mxCell id="YKc2kV-cfJVW2iqWpYW3-32" value="include" style="rounded=0;orthogonalLoop=1;jettySize=auto;html=1;dashed=1;" edge="1" parent="1" source="YKc2kV-cfJVW2iqWpYW3-24" target="YKc2kV-cfJVW2iqWpYW3-27">
          <mxGeometry relative="1" as="geometry" />
        </mxCell>
        <mxCell id="YKc2kV-cfJVW2iqWpYW3-24" value="View&lt;br&gt;lesson" style="ellipse;whiteSpace=wrap;html=1;fillColor=#f5f5f5;strokeColor=#666666;fontColor=#333333;" vertex="1" parent="1">
          <mxGeometry x="150" y="390" width="140" height="50" as="geometry" />
        </mxCell>
        <mxCell id="YKc2kV-cfJVW2iqWpYW3-27" value="Select&lt;br&gt;Era" style="ellipse;whiteSpace=wrap;html=1;fillColor=#f5f5f5;strokeColor=#666666;fontColor=#333333;" vertex="1" parent="1">
          <mxGeometry x="290" y="460" width="140" height="50" as="geometry" />
        </mxCell>
        <mxCell id="YKc2kV-cfJVW2iqWpYW3-28" value="Select&lt;br&gt;lesson" style="ellipse;whiteSpace=wrap;html=1;fillColor=#f5f5f5;strokeColor=#666666;fontColor=#333333;" vertex="1" parent="1">
          <mxGeometry x="170" y="550" width="140" height="50" as="geometry" />
        </mxCell>
        <mxCell id="YKc2kV-cfJVW2iqWpYW3-29" value="Select&lt;br&gt;part of lesson" style="ellipse;whiteSpace=wrap;html=1;fillColor=#f5f5f5;strokeColor=#666666;fontColor=#333333;" vertex="1" parent="1">
          <mxGeometry x="50" y="470" width="140" height="50" as="geometry" />
        </mxCell>
        <mxCell id="YKc2kV-cfJVW2iqWpYW3-35" value="Select&lt;div&gt;exercise&lt;/div&gt;" style="ellipse;whiteSpace=wrap;html=1;fillColor=#e1d5e7;strokeColor=#9673a6;" vertex="1" parent="1">
          <mxGeometry x="450" y="580" width="140" height="50" as="geometry" />
        </mxCell>
      </root>
    </mxGraphModel>
  </diagram>
</mxfile>
